<svg xmlns="http://www.w3.org/2000/svg" xmlns:xlink="http://www.w3.org/1999/xlink" viewBox="0 0 1418.23 637.85"><defs><style>.cls-1{fill:url(#linear-gradient);}.cls-2{fill:url(#linear-gradient-2);}.cls-3{fill:url(#linear-gradient-3);}.cls-4{fill:url(#linear-gradient-4);}.cls-5{fill:url(#linear-gradient-5);}.cls-6{fill:url(#linear-gradient-6);}.cls-7{fill:url(#linear-gradient-7);}.cls-8{fill:url(#linear-gradient-8);}.cls-9{fill:url(#linear-gradient-9);}.cls-10{fill:url(#linear-gradient-10);}.cls-11{fill:url(#linear-gradient-11);}.cls-12{fill:url(#linear-gradient-12);}.cls-13{fill:url(#linear-gradient-13);}.cls-14{fill:url(#linear-gradient-14);}.cls-15{fill:url(#linear-gradient-15);}.cls-16{fill:url(#linear-gradient-16);}.cls-17{fill:url(#linear-gradient-17);}.cls-18{fill:url(#linear-gradient-18);}.cls-19{fill:url(#linear-gradient-19);}.cls-20{fill:url(#linear-gradient-20);}.cls-21{fill:#e10213;}.cls-22{fill:#ff3287;}.cls-23{fill:#ff7f00;}.cls-24{fill:#ffb900;}.cls-25{fill:#83f101;}.cls-26{fill:#b8ff00;}.cls-27{fill:#00c0df;}.cls-28{fill:#09f9d1;}.cls-29{fill:url(#linear-gradient-21);}.cls-30{fill:url(#linear-gradient-22);}.cls-31{fill:url(#linear-gradient-23);}.cls-32{fill:url(#linear-gradient-24);}.cls-33{fill:url(#linear-gradient-25);}.cls-34{fill:url(#linear-gradient-26);}.cls-35{fill:#1d6cff;}.cls-36{fill:#23ffff;}.cls-37{fill:url(#linear-gradient-27);}</style><linearGradient id="linear-gradient" x1="-7951.1" y1="-4703.54" x2="-7924.43" y2="-4703.54" gradientTransform="translate(4892.98 -7425.83) rotate(-90)" gradientUnits="userSpaceOnUse"><stop offset="0" stop-color="#e10213"/><stop offset="1" stop-color="#ff3086"/></linearGradient><linearGradient id="linear-gradient-2" x1="5204.72" y1="-7619.03" x2="5258.06" y2="-7619.03" gradientTransform="translate(-7555.88 -4802.91) rotate(90)" xlink:href="#linear-gradient"/><linearGradient id="linear-gradient-3" x1="47.75" y1="516.38" x2="78.54" y2="516.38" gradientTransform="matrix(1, 0, 0, 1, 0, 0)" xlink:href="#linear-gradient"/><linearGradient id="linear-gradient-4" x1="163.04" y1="428.74" x2="215.83" y2="428.74" gradientTransform="matrix(1, 0, 0, 1, 0, 0)" xlink:href="#linear-gradient"/><linearGradient id="linear-gradient-5" x1="-7951.1" y1="-4411.58" x2="-7924.43" y2="-4411.58" gradientTransform="translate(4892.98 -7425.83) rotate(-90)" gradientUnits="userSpaceOnUse"><stop offset="0" stop-color="#ff3086"/><stop offset="1" stop-color="#ff7f00"/></linearGradient><linearGradient id="linear-gradient-6" x1="5204.72" y1="-7910.99" x2="5258.06" y2="-7910.99" gradientTransform="translate(-7555.88 -4802.91) rotate(90)" xlink:href="#linear-gradient-5"/><linearGradient id="linear-gradient-7" x1="339.71" y1="516.38" x2="370.5" y2="516.38" gradientTransform="matrix(1, 0, 0, 1, 0, 0)" xlink:href="#linear-gradient-5"/><linearGradient id="linear-gradient-8" x1="455" y1="428.74" x2="507.8" y2="428.74" gradientTransform="matrix(1, 0, 0, 1, 0, 0)" xlink:href="#linear-gradient-5"/><linearGradient id="linear-gradient-9" x1="-7951.1" y1="-4119.62" x2="-7924.43" y2="-4119.62" gradientTransform="translate(4892.98 -7425.83) rotate(-90)" gradientUnits="userSpaceOnUse"><stop offset="0" stop-color="#ff7f00"/><stop offset="1" stop-color="#ffb900"/></linearGradient><linearGradient id="linear-gradient-10" x1="5204.72" y1="-8202.95" x2="5258.06" y2="-8202.95" gradientTransform="translate(-7555.88 -4802.91) rotate(90)" xlink:href="#linear-gradient-9"/><linearGradient id="linear-gradient-11" x1="631.67" y1="516.38" x2="662.46" y2="516.38" gradientTransform="matrix(1, 0, 0, 1, 0, 0)" xlink:href="#linear-gradient-9"/><linearGradient id="linear-gradient-12" x1="746.96" y1="428.74" x2="799.76" y2="428.74" gradientTransform="matrix(1, 0, 0, 1, 0, 0)" xlink:href="#linear-gradient-9"/><linearGradient id="linear-gradient-13" x1="-7951.1" y1="-3827.66" x2="-7924.43" y2="-3827.66" gradientTransform="translate(4892.98 -7425.83) rotate(-90)" gradientUnits="userSpaceOnUse"><stop offset="0" stop-color="#ffb900"/><stop offset="1" stop-color="#83f101"/></linearGradient><linearGradient id="linear-gradient-14" x1="5204.72" y1="-8494.91" x2="5258.06" y2="-8494.91" gradientTransform="translate(-7555.88 -4802.91) rotate(90)" xlink:href="#linear-gradient-13"/><linearGradient id="linear-gradient-15" x1="923.63" y1="516.38" x2="954.42" y2="516.38" gradientTransform="matrix(1, 0, 0, 1, 0, 0)" xlink:href="#linear-gradient-13"/><linearGradient id="linear-gradient-16" x1="1038.92" y1="428.74" x2="1091.72" y2="428.74" gradientTransform="matrix(1, 0, 0, 1, 0, 0)" xlink:href="#linear-gradient-13"/><linearGradient id="linear-gradient-17" x1="-7951.1" y1="-3535.7" x2="-7924.43" y2="-3535.7" gradientTransform="translate(4892.98 -7425.83) rotate(-90)" gradientUnits="userSpaceOnUse"><stop offset="0" stop-color="#83f101"/><stop offset="1" stop-color="#b8ff00"/></linearGradient><linearGradient id="linear-gradient-18" x1="5204.72" y1="-8786.87" x2="5258.06" y2="-8786.87" gradientTransform="translate(-7555.88 -4802.91) rotate(90)" xlink:href="#linear-gradient-17"/><linearGradient id="linear-gradient-19" x1="1215.59" y1="516.38" x2="1246.39" y2="516.38" gradientTransform="matrix(1, 0, 0, 1, 0, 0)" xlink:href="#linear-gradient-17"/><linearGradient id="linear-gradient-20" x1="1330.88" y1="428.74" x2="1383.68" y2="428.74" gradientTransform="matrix(1, 0, 0, 1, 0, 0)" xlink:href="#linear-gradient-17"/><linearGradient id="linear-gradient-21" x1="701" y1="101.54" x2="953.58" y2="101.54" gradientUnits="userSpaceOnUse"><stop offset="0" stop-color="#00c0df"/><stop offset="1" stop-color="#09f9d1"/></linearGradient><linearGradient id="linear-gradient-22" x1="0" y1="254.67" x2="252.58" y2="254.67" gradientTransform="matrix(1, 0, 0, 1, 0, 0)" xlink:href="#linear-gradient"/><linearGradient id="linear-gradient-23" x1="1165.65" y1="254.67" x2="1418.23" y2="254.67" gradientTransform="matrix(1, 0, 0, 1, 0, 0)" xlink:href="#linear-gradient-17"/><linearGradient id="linear-gradient-24" x1="582.82" y1="254.67" x2="835.41" y2="254.67" gradientTransform="matrix(1, 0, 0, 1, 0, 0)" xlink:href="#linear-gradient-9"/><linearGradient id="linear-gradient-25" x1="874.23" y1="254.67" x2="1126.82" y2="254.67" gradientTransform="matrix(1, 0, 0, 1, 0, 0)" xlink:href="#linear-gradient-13"/><linearGradient id="linear-gradient-26" x1="291.41" y1="255.67" x2="543.99" y2="255.67" gradientTransform="matrix(1, 0, 0, 1, 0, 0)" xlink:href="#linear-gradient-5"/><linearGradient id="linear-gradient-27" x1="366.27" y1="101.21" x2="618.85" y2="101.21" gradientUnits="userSpaceOnUse"><stop offset="0" stop-color="#1d6cff"/><stop offset="1" stop-color="#23ffff"/></linearGradient></defs><title>colors and shapes</title><g id="Layer_2" data-name="Layer 2"><g id="Layer_1-2" data-name="Layer 1"><polygon class="cls-1" points="174.04 525.27 204.83 525.27 189.44 498.61 174.04 525.27"/><polygon class="cls-2" points="93.94 455.15 63.15 401.81 32.35 455.15 93.94 455.15"/><path class="cls-3" d="M63.15,501h0a15.38,15.38,0,0,0-13.34,7.7h0a15.39,15.39,0,0,0,0,15.39h0a15.38,15.38,0,0,0,13.34,7.7h0a15.38,15.38,0,0,0,13.33-7.7h0a15.39,15.39,0,0,0,0-15.39h0A15.38,15.38,0,0,0,63.15,501Z"/><path class="cls-4" d="M189.44,402.34h0a26.39,26.39,0,0,0-22.86,13.2h0a26.36,26.36,0,0,0,0,26.39h0a26.4,26.4,0,0,0,22.86,13.19h0a26.41,26.41,0,0,0,22.86-13.19h0a26.41,26.41,0,0,0,0-26.39h0A26.4,26.4,0,0,0,189.44,402.34Z"/><polygon class="cls-5" points="466 525.27 496.79 525.27 481.4 498.61 466 525.27"/><polygon class="cls-6" points="385.9 455.15 355.11 401.81 324.31 455.15 385.9 455.15"/><path class="cls-7" d="M355.11,501h0a15.4,15.4,0,0,0-13.34,7.7h0a15.39,15.39,0,0,0,0,15.39h0a15.4,15.4,0,0,0,13.34,7.7h0a15.38,15.38,0,0,0,13.33-7.7h0a15.39,15.39,0,0,0,0-15.39h0A15.38,15.38,0,0,0,355.11,501Z"/><path class="cls-8" d="M481.4,402.34h0a26.39,26.39,0,0,0-22.86,13.2h0a26.36,26.36,0,0,0,0,26.39h0a26.4,26.4,0,0,0,22.86,13.19h0a26.41,26.41,0,0,0,22.86-13.19h0a26.41,26.41,0,0,0,0-26.39h0A26.4,26.4,0,0,0,481.4,402.34Z"/><polygon class="cls-9" points="757.96 525.27 788.75 525.27 773.36 498.61 757.96 525.27"/><polygon class="cls-10" points="677.86 455.15 647.07 401.81 616.27 455.15 677.86 455.15"/><path class="cls-11" d="M647.07,501h0a15.4,15.4,0,0,0-13.34,7.7h0a15.39,15.39,0,0,0,0,15.39h0a15.4,15.4,0,0,0,13.34,7.7h0a15.38,15.38,0,0,0,13.33-7.7h0a15.39,15.39,0,0,0,0-15.39h0A15.38,15.38,0,0,0,647.07,501Z"/><path class="cls-12" d="M773.36,402.34h0a26.39,26.39,0,0,0-22.86,13.2h0a26.36,26.36,0,0,0,0,26.39h0a26.4,26.4,0,0,0,22.86,13.19h0a26.41,26.41,0,0,0,22.86-13.19h0a26.36,26.36,0,0,0,0-26.39h0A26.4,26.4,0,0,0,773.36,402.34Z"/><polygon class="cls-13" points="1049.92 525.27 1080.72 525.27 1065.32 498.61 1049.92 525.27"/><polygon class="cls-14" points="969.82 455.15 939.03 401.81 908.24 455.15 969.82 455.15"/><path class="cls-15" d="M939,501h0a15.4,15.4,0,0,0-13.34,7.7h0a15.39,15.39,0,0,0,0,15.39h0a15.4,15.4,0,0,0,13.34,7.7h0a15.38,15.38,0,0,0,13.33-7.7h0a15.39,15.39,0,0,0,0-15.39h0A15.38,15.38,0,0,0,939,501Z"/><path class="cls-16" d="M1065.32,402.34h0a26.39,26.39,0,0,0-22.86,13.2h0a26.36,26.36,0,0,0,0,26.39h0a26.4,26.4,0,0,0,22.86,13.19h0a26.4,26.4,0,0,0,22.86-13.19h0a26.36,26.36,0,0,0,0-26.39h0A26.4,26.4,0,0,0,1065.32,402.34Z"/><polygon class="cls-17" points="1341.88 525.27 1372.68 525.27 1357.28 498.61 1341.88 525.27"/><polygon class="cls-18" points="1261.78 455.15 1230.99 401.81 1200.2 455.15 1261.78 455.15"/><path class="cls-19" d="M1231,501h0a15.38,15.38,0,0,0-13.33,7.7h0a15.34,15.34,0,0,0,0,15.39h0a15.38,15.38,0,0,0,13.33,7.7h0a15.38,15.38,0,0,0,13.33-7.7h0a15.39,15.39,0,0,0,0-15.39h0A15.38,15.38,0,0,0,1231,501Z"/><path class="cls-20" d="M1357.28,402.34h0a26.39,26.39,0,0,0-22.86,13.2h0a26.36,26.36,0,0,0,0,26.39h0a26.4,26.4,0,0,0,22.86,13.19h0a26.4,26.4,0,0,0,22.86-13.19h0a26.36,26.36,0,0,0,0-26.39h0A26.39,26.39,0,0,0,1357.28,402.34Z"/><polygon class="cls-21" points="93.94 637.85 63.15 584.51 32.35 637.85 93.94 637.85"/><path class="cls-22" d="M283.65,584.52h0a26.41,26.41,0,0,0-22.87,13.19h0a26.43,26.43,0,0,0,0,26.4h0a26.4,26.4,0,0,0,22.87,13.2h0a26.4,26.4,0,0,0,22.86-13.2h0a26.43,26.43,0,0,0,0-26.4h0A26.41,26.41,0,0,0,283.65,584.52Z"/><polygon class="cls-23" points="598.08 637.85 567.29 584.51 536.5 637.85 598.08 637.85"/><path class="cls-24" d="M850.94,585h0a26.39,26.39,0,0,0-22.86,13.2h0a26.38,26.38,0,0,0,0,26.4h0a26.41,26.41,0,0,0,22.86,13.2h0a26.42,26.42,0,0,0,22.86-13.2h0a26.43,26.43,0,0,0,0-26.4h0A26.4,26.4,0,0,0,850.94,585Z"/><polygon class="cls-25" points="1165.38 637.85 1134.58 584.51 1103.79 637.85 1165.38 637.85"/><path class="cls-26" d="M1355.08,585h0a26.4,26.4,0,0,0-22.86,13.2h0a26.43,26.43,0,0,0,0,26.4h0a26.42,26.42,0,0,0,22.86,13.2h0a26.41,26.41,0,0,0,22.86-13.2h0a26.38,26.38,0,0,0,0-26.4h0A26.39,26.39,0,0,0,1355.08,585Z"/><rect class="cls-27" x="701" y="0.32" width="126.29" height="73.48"/><rect class="cls-28" x="827.29" y="0.32" width="126.29" height="73.48"/><rect class="cls-29" x="701" y="84.76" width="252.58" height="33.55"/><rect class="cls-21" y="153.46" width="126.29" height="73.48"/><rect class="cls-22" x="126.29" y="153.46" width="126.29" height="73.48"/><rect class="cls-30" y="237.9" width="252.58" height="33.55"/><rect class="cls-25" x="1165.65" y="153.46" width="126.29" height="73.48"/><rect class="cls-26" x="1291.94" y="153.46" width="126.29" height="73.48"/><rect class="cls-31" x="1165.65" y="237.9" width="252.58" height="33.55"/><rect class="cls-23" x="582.82" y="153.46" width="126.29" height="73.48"/><rect class="cls-24" x="709.11" y="153.46" width="126.29" height="73.48"/><rect class="cls-32" x="582.82" y="237.9" width="252.58" height="33.55"/><rect class="cls-24" x="874.23" y="153.46" width="126.29" height="73.48"/><rect class="cls-25" x="1000.53" y="153.46" width="126.29" height="73.48"/><rect class="cls-33" x="874.23" y="237.9" width="252.58" height="33.55"/><rect class="cls-22" x="291.41" y="154.46" width="126.29" height="73.48"/><rect class="cls-23" x="417.7" y="154.46" width="126.29" height="73.48"/><rect class="cls-34" x="291.41" y="238.9" width="252.58" height="33.55"/><rect class="cls-35" x="366.27" width="126.29" height="73.48"/><rect class="cls-36" x="492.56" width="126.29" height="73.48"/><rect class="cls-37" x="366.27" y="84.44" width="252.58" height="33.55"/></g></g></svg>