<svg xmlns="http://www.w3.org/2000/svg" viewBox="0 0 1705 940.16"><defs><style>.cls-1,.cls-2{fill:#f0f4f5;}.cls-2{opacity:0.25;}</style></defs><title>goal</title><g id="Layer_2" data-name="Layer 2"><g id="Layer_1-2" data-name="Layer 1"><path class="cls-1" d="M852.5,313.68a10,10,0,1,1,10-10A10,10,0,0,1,852.5,313.68Zm0-10Z"/><path class="cls-1" d="M947.48,34.93h-190V0h190Z"/><path class="cls-1" d="M1084.58,172H620.42V24.93h464.16ZM630.42,162h444.16V34.93H630.42Z"/><path class="cls-2" d="M10,59.43a30,30,0,0,0,24.5-24.5h1636a30,30,0,0,0,24.5,24.5V940.16h10V24.93H0V940.16H10Zm1685-24.5V49.22a20,20,0,0,1-14.29-14.29Zm-1685,0H24.29A20,20,0,0,1,10,49.22Z"/><path class="cls-1" d="M347.44,24.93V446.75H669.25a236.14,236.14,0,0,0,79.25,65.68,234.39,234.39,0,0,0,211.89,0,236.2,236.2,0,0,0,79.24-65.68h317.93V24.93ZM955.85,503.52a224.39,224.39,0,0,1-202.81,0,226.05,226.05,0,0,1-70.94-56.77h344.69A226.16,226.16,0,0,1,955.85,503.52Zm391.71-66.77H357.44V34.93h990.12Z"/></g></g></svg>