<svg id="Layer_1" data-name="Layer 1" xmlns="http://www.w3.org/2000/svg" xmlns:xlink="http://www.w3.org/1999/xlink" viewBox="0 0 1025 1025"><defs><style>.cls-1{fill:none;}.cls-2{clip-path:url(#clip-path);}.cls-3{fill:#1d6cff;}.cls-4{fill:#002142;}.cls-5,.cls-6,.cls-7{fill:#b3b3b3;}.cls-6{fill-opacity:0;}.cls-7{opacity:0.77;}</style><clipPath id="clip-path"><rect class="cls-1" width="1025" height="1025"/></clipPath></defs><title>Hriste pozadi passing maps</title><g class="cls-2"><path class="cls-3" d="M770,1094s138.91,28.8,160-70a2674.83,2674.83,0,0,0,34.26-923.84C958.17,55.65,915.08,26.05,871.5,37L738,70.37c-36.67,9.18-61.19,44.26-56.24,81.74A2388.32,2388.32,0,0,1,636.21,1024C619.81,1092.3,770,1094,770,1094Z"/><path class="cls-4" d="M779,1076s127.12-14,135.32-51.49a2674.68,2674.68,0,0,0,37-936.35C945.17,43.65,902.08,14.05,858.5,25L725,58.37c-36.67,9.18-61.19,44.26-56.24,81.74A2388.36,2388.36,0,0,1,620.3,1024C604.51,1088.29,779,1076,779,1076Z"/><path class="cls-5" d="M404.57,515.24a74.1,74.1,0,0,1-23,53.66,80.48,80.48,0,0,1-111.07,0,74.11,74.11,0,0,1,0-107.33,80.48,80.48,0,0,1,111.07,0A74.12,74.12,0,0,1,404.57,515.24Zm-153.71,0a71,71,0,0,0,22,51.36,77,77,0,0,0,106.3,0,70.92,70.92,0,0,0,0-102.73,77,77,0,0,0-106.3,0A71,71,0,0,0,250.86,515.24Z"/><ellipse class="cls-5" cx="326.03" cy="515.24" rx="1.68" ry="1.62"/><path class="cls-5" d="M327.88,515.24a1.85,1.85,0,1,1-1.85-1.79A1.82,1.82,0,0,1,327.88,515.24Zm-3.36,0a1.51,1.51,0,1,0,1.51-1.46A1.49,1.49,0,0,0,324.52,515.24Z"/><ellipse class="cls-5" cx="326.03" cy="852.07" rx="1.68" ry="1.62"/><path class="cls-5" d="M327.88,852.07a1.85,1.85,0,1,1-1.85-1.78A1.82,1.82,0,0,1,327.88,852.07Zm-3.36,0a1.51,1.51,0,1,0,1.51-1.46A1.48,1.48,0,0,0,324.52,852.07Z"/><ellipse class="cls-5" cx="326.03" cy="178.4" rx="1.68" ry="1.62"/><path class="cls-5" d="M327.88,178.4a1.85,1.85,0,1,1-1.85-1.79A1.82,1.82,0,0,1,327.88,178.4Zm-3.36,0a1.51,1.51,0,1,0,1.51-1.46A1.49,1.49,0,0,0,324.52,178.4Z"/><path class="cls-5" d="M295.71,941.36v8.11h60.64v-8.11Z"/><path class="cls-5" d="M295.71,89.12V81h60.64v8.12Z"/><path class="cls-6" d="M249.51,941.36V896.71h153v44.65Z"/><path class="cls-5" d="M402.88,896.39v45.29H249.18V896.39ZM402.21,941V897H249.85v44Z"/><path class="cls-6" d="M249.51,89.12v44.64h153V89.12Z"/><path class="cls-5" d="M402.88,88.79v45.29H249.18V88.79Zm-.67,44.64v-44H249.85v44Z"/><path class="cls-6" d="M157.12,941.36V807.43H494.94V941.36Z"/><path class="cls-5" d="M495.27,807.11V941.68H156.78V807.11ZM494.6,941V807.76H157.46V941Z"/><path class="cls-7" d="M404.72,895.09v48.07H247.34V895.09Zm-3.37,44.81V898.34H250.71V939.9Z"/><path class="cls-5" d="M329.1,852.35a3.08,3.08,0,1,1-3.07-3A3,3,0,0,1,329.1,852.35Zm-3.36,0a.29.29,0,0,0,.58,0,.29.29,0,0,0-.58,0Z"/><rect class="cls-5" x="252.26" y="805.8" width="149.01" height="3.26"/><path class="cls-5" d="M496.21,805.8V943.16H155.85V805.8H263a79,79,0,0,1,26.71-21.38,81.35,81.35,0,0,1,71.39,0,78.92,78.92,0,0,1,26.7,21.38Zm-3.37,134.1V809.06H386.1l-.5-.65a75.59,75.59,0,0,0-26.06-21.09,77.94,77.94,0,0,0-68.34,0,75.65,75.65,0,0,0-26.05,21.09l-.51.65H159.22V939.9Z"/><path class="cls-7" d="M404.72,87.87v48.07H247.34V87.87Zm-3.37,44.82V91.13H250.71v41.56Z"/><path class="cls-5" d="M329.1,178.68a3.08,3.08,0,1,1-3.07-3A3,3,0,0,1,329.1,178.68Zm-3.36,0a.29.29,0,1,0,.29-.29A.29.29,0,0,0,325.74,178.68Z"/><rect class="cls-5" x="250.78" y="221.97" width="149.01" height="3.26"/><path class="cls-5" d="M496.21,87.87V225.22H389.08a79,79,0,0,1-26.7,21.39,81.43,81.43,0,0,1-71.39,0,79,79,0,0,1-26.71-21.39H155.85V87.87ZM492.84,222V91.13H159.22V222H266l.51.64a75.56,75.56,0,0,0,26.05,21.1,77.94,77.94,0,0,0,68.34,0,75.5,75.5,0,0,0,26.06-21.1l.5-.64Z"/><path class="cls-5" d="M329.1,515.24a3.08,3.08,0,1,1-3.07-3A3,3,0,0,1,329.1,515.24Zm-3.36,0A.29.29,0,1,0,326,515,.29.29,0,0,0,325.74,515.24Z"/><path class="cls-7" d="M50.54,941.36V943H38.77V931.61h1.69A9.93,9.93,0,0,1,50.54,941.36Zm-8.4-1.63H47a6.65,6.65,0,0,0-4.82-4.66Z"/><path class="cls-5" d="M613.28,87.49V943H38.77V87.49Zm-3.37,426.12V90.74H42.14V513.61Zm0,426.12V516.86H42.14V939.73Z"/><path class="cls-5" d="M50.54,87.49v1.63a9.92,9.92,0,0,1-10.08,9.74H38.77V87.49Zm-8.4,7.91A6.63,6.63,0,0,0,47,90.74H42.14Z"/><path class="cls-7" d="M613.28,87.49V943H38.77V87.49Zm-3.37,852.24v-849H42.14v849Z"/><path class="cls-5" d="M613.28,931.61V943H601.52v-1.62a9.93,9.93,0,0,1,10.08-9.75Zm-3.37,8.12v-4.66a6.64,6.64,0,0,0-4.81,4.66Z"/><path class="cls-5" d="M613.28,87.49V98.86H611.6a9.92,9.92,0,0,1-10.08-9.74V87.49Zm-3.37,7.91V90.74H605.1A6.62,6.62,0,0,0,609.91,95.4Z"/></g></svg>