<?xml version="1.0" encoding="utf-8"?>
<!-- Generator: Adobe Illustrator 22.0.1, SVG Export Plug-In . SVG Version: 6.00 Build 0)  -->
<svg version="1.1" id="Layer_1" xmlns="http://www.w3.org/2000/svg" xmlns:xlink="http://www.w3.org/1999/xlink" x="0px" y="0px"
	 viewBox="0 0 1705 2677.1" style="enable-background:new 0 0 1705 2677.1;" xml:space="preserve">
<style type="text/css">
	.st0{fill:#F0F4F5;}	
</style>
<title>pitch</title>
<g>
	<path class="st0" d="M757.5,0v24.9H620.4h-273H0v2627.3h347.4h273h137.1v24.9h190v-24.9h137.1h273H1705V24.9h-347.4h-273H947.5V0
		L757.5,0L757.5,0z M10,34.9h14.3c-1.8,7-7.3,12.5-14.3,14.3C10,49.2,10,34.9,10,34.9z M843.8,1343.5c1.7,3,5,5,8.7,5s6.9-2,8.7-5
		h214.4c-2.7,120.9-101.5,218.1-223,218.1s-220.3-97.2-223-218.1H843.8z M861.1,1333.5c-1.7-3-5-5-8.7-5s-6.9,2-8.7,5H629.5
		c1.1-57.4,24.5-112.2,65.3-152.7c41.8-41.8,98.6-65.3,157.7-65.3c121.5,0,220.3,97.2,223,218.1L861.1,1333.5L861.1,1333.5z
		 M10,2642.2v-14.3c7,1.8,12.5,7.3,14.3,14.3H10z M757.5,2642.2H630.4v-127.1h444.2v127.1H947.5H757.5z M1084.6,2505.1H620.4v137.1
		h-263v-401.8h990.1v401.8h-263L1084.6,2505.1L1084.6,2505.1z M1695,2642.2h-14.3c1.8-7,7.3-12.5,14.3-14.3V2642.2z M1695,2617.7
		c-12.5,2.1-22.4,12-24.5,24.5h-312.9v-411.8h-321.8c-21.3-27.5-48.3-49.9-79.2-65.7c-66.6-33.7-145.3-33.7-211.9,0
		c-30.9,15.8-58,38.2-79.2,65.7H347.4v411.8H34.5c-2.1-12.5-12-22.4-24.5-24.5V1343.6h609.5c2.7,126.4,106,228.1,233,228.1
		s230.3-101.7,233-228.1H1695V2617.7z M1022.9,2230.3H678.2c19.6-23.5,43.7-42.8,70.9-56.8c63.7-32.3,139.1-32.3,202.8,0
		C979.2,2187.5,1003.3,2206.8,1022.9,2230.3z M1695,34.9v14.3c-7-1.8-12.5-7.3-14.3-14.3H1695z M1670.5,34.9
		c2.1,12.5,12,22.4,24.5,24.5v1274.1h-609.5c-1.1-60-25.5-117.4-68.2-159.8c-43.7-43.7-103-68.3-164.8-68.3
		c-127,0-230.3,101.7-233,228.1H10V59.4c12.5-2.1,22.4-12,24.5-24.5h312.9v411.8h321.8c21.3,27.5,48.3,49.9,79.2,65.7
		c66.6,33.7,145.3,33.7,211.9,0c30.9-15.8,58-38.2,79.2-65.7h317.9V34.9L1670.5,34.9L1670.5,34.9z M682.1,446.7h344.7
		c-19.6,23.5-43.7,42.8-70.9,56.8c-63.7,32.3-139.1,32.3-202.8,0C725.8,489.6,701.7,470.2,682.1,446.7z M1347.6,34.9v401.8H357.4
		V34.9h263V172h464.2V34.9H1347.6z M1074.6,34.9V162H630.4V34.9h127.1h190H1074.6z"/>
	<circle class="st0" cx="852.5" cy="303.6" r="10"/>
	<circle class="st0" cx="852.5" cy="2373.4" r="10"/>
</g>
</svg>
