<?xml version="1.0" encoding="utf-8"?>
<!-- Generator: Adobe Illustrator 22.0.1, SVG Export Plug-In . SVG Version: 6.00 Build 0)  -->
<svg version="1.1" id="Layer_1" xmlns="http://www.w3.org/2000/svg" xmlns:xlink="http://www.w3.org/1999/xlink" x="0px" y="0px"
	 viewBox="0 0 2677.1 1705" style="enable-background:new 0 0 2677.1 1705;" xml:space="preserve">
<style type="text/css">
	.st0{fill:#F0F4F5;}
</style>
<title>pitch</title>
<g>
	<path class="st0" d="M2677.1,757.5h-24.9V620.4v-273V0H24.9v347.4v273v137.1H0v190h24.9v137.1v273V1705h2627.3v-347.4v-273V947.5
		h24.9V757.5z M2642.2,10v14.3c-7-1.8-12.5-7.3-14.3-14.3H2642.2z M1333.6,843.8c-3,1.7-5,5-5,8.7s2,6.9,5,8.7v214.4
		c-120.9-2.7-218.1-101.5-218.1-223c0-121.5,97.2-220.3,218.1-223V843.8z M1343.6,861.1c3-1.7,5-5,5-8.7s-2-6.9-5-8.7V629.5
		c57.4,1.1,112.2,24.5,152.7,65.3c41.8,41.8,65.3,98.6,65.3,157.7c0,121.5-97.2,220.3-218.1,223V861.1z M34.9,10h14.3
		c-1.8,7-7.3,12.5-14.3,14.3V10z M34.9,757.5V630.4H162v444.2H34.9V947.5V757.5z M172,1084.6V620.4H34.9v-263h401.8v990.1H34.9v-263
		H172z M34.9,1695v-14.3c7,1.8,12.5,7.3,14.3,14.3H34.9z M59.4,1695c-2.1-12.5-12-22.4-24.5-24.5v-312.9h411.8v-321.8
		c27.5-21.3,49.9-48.3,65.7-79.2c33.7-66.6,33.7-145.3,0-211.9c-15.8-30.9-38.2-58-65.7-79.2V347.4H34.9V34.5
		c12.5-2.1,22.4-12,24.5-24.5h1274.1v609.5c-126.4,2.7-228.1,106-228.1,233c0,127,101.7,230.3,228.1,233V1695H59.4z M446.8,1022.9
		V678.2c23.5,19.6,42.8,43.7,56.8,70.9c32.3,63.7,32.3,139.1,0,202.8C489.6,979.2,470.3,1003.3,446.8,1022.9z M2642.2,1695h-14.3
		c1.8-7,7.3-12.5,14.3-14.3V1695z M2642.2,1670.5c-12.5,2.1-22.4,12-24.5,24.5H1343.6v-609.5c60-1.1,117.4-25.5,159.8-68.2
		c43.7-43.7,68.3-103,68.3-164.8c0-127-101.7-230.3-228.1-233V10h1274.1c2.1,12.5,12,22.4,24.5,24.5v312.9h-411.8v321.8
		c-27.5,21.3-49.9,48.3-65.7,79.2c-33.7,66.6-33.7,145.3,0,211.9c15.8,30.9,38.2,58,65.7,79.2v317.9h411.8V1670.5z M2230.4,682.1
		v344.7c-23.5-19.6-42.8-43.7-56.8-70.9c-32.3-63.7-32.3-139.1,0-202.8C2187.5,725.8,2206.9,701.7,2230.4,682.1z M2642.2,1347.6
		h-401.8V357.4h401.8v263h-137.1v464.2h137.1V1347.6z M2642.2,1074.6h-127.1V630.4h127.1v127.1v190V1074.6z"/>
	<circle class="st0" cx="2373.5" cy="852.5" r="10"/>
	<circle class="st0" cx="303.7" cy="852.5" r="10"/>
</g>
</svg>
