<svg xmlns="http://www.w3.org/2000/svg" xmlns:xlink="http://www.w3.org/1999/xlink" viewBox="0 0 1705 940.16"><defs><style>.cls-1,.cls-2{fill:#f0f4f5;}.cls-2{opacity:0.25;}.cls-3{fill:url(#linear-gradient);}.cls-4{fill:url(#linear-gradient-2);}.cls-5{fill:url(#linear-gradient-3);}.cls-6{fill:url(#linear-gradient-4);}.cls-7{fill:url(#linear-gradient-5);}.cls-8{fill:url(#linear-gradient-6);}.cls-9{fill:url(#linear-gradient-7);}.cls-10{fill:url(#linear-gradient-8);}.cls-11{fill:url(#linear-gradient-9);}</style><linearGradient id="linear-gradient" x1="-4031.63" y1="-4629.32" x2="-4004.96" y2="-4629.32" gradientTransform="translate(5438.08 -3746.28) rotate(-90)" gradientUnits="userSpaceOnUse"><stop offset="0" stop-color="#83f101"/><stop offset="1" stop-color="#b8ff00"/></linearGradient><linearGradient id="linear-gradient-2" x1="-3833.25" y1="-4614.12" x2="-3787.81" y2="-4614.12" gradientTransform="translate(5627.52 -3526.45) rotate(-90)" xlink:href="#linear-gradient"/><linearGradient id="linear-gradient-3" x1="5568.92" y1="-4575.03" x2="5622.26" y2="-4575.03" gradientTransform="translate(-3876.33 -5348.01) rotate(90)" gradientUnits="userSpaceOnUse"><stop offset="0" stop-color="#ffb900"/><stop offset="1" stop-color="#83f101"/></linearGradient><linearGradient id="linear-gradient-4" x1="-3941.3" y1="-4680.1" x2="-3887.97" y2="-4680.1" gradientTransform="translate(5588.08 -3697.85) rotate(-90)" gradientUnits="userSpaceOnUse"><stop offset="0" stop-color="#ff7f00"/><stop offset="1" stop-color="#ffb900"/></linearGradient><linearGradient id="linear-gradient-5" x1="-4171.2" y1="-4522.72" x2="-4117.86" y2="-4522.72" gradientTransform="translate(5200.8 -3770.36) rotate(-90)" gradientUnits="userSpaceOnUse"><stop offset="0" stop-color="#e10213"/><stop offset="1" stop-color="#ff3086"/></linearGradient><linearGradient id="linear-gradient-6" x1="5919.17" y1="-4339.69" x2="5945.84" y2="-4339.69" gradientTransform="translate(-3308.51 -5445.13) rotate(90)" gradientUnits="userSpaceOnUse"><stop offset="0" stop-color="#ff3086"/><stop offset="1" stop-color="#ff7f00"/></linearGradient><linearGradient id="linear-gradient-7" x1="-4268.52" y1="-4356.04" x2="-4223.08" y2="-4356.04" gradientTransform="translate(4934.17 -3703.64) rotate(-90)" xlink:href="#linear-gradient-3"/><linearGradient id="linear-gradient-8" x1="889.23" y1="383.06" x2="920.02" y2="383.06" gradientTransform="matrix(1, 0, 0, 1, 0, 0)" xlink:href="#linear-gradient"/><linearGradient id="linear-gradient-9" x1="909.94" y1="276.46" x2="949.92" y2="276.46" gradientTransform="matrix(1, 0, 0, 1, 0, 0)" xlink:href="#linear-gradient-5"/></defs><title>Asset 39</title><g id="Layer_2" data-name="Layer 2"><g id="Layer_1-2" data-name="Layer 1"><path class="cls-1" d="M852.5,313.68a10,10,0,1,1,10-10A10,10,0,0,1,852.5,313.68Zm0-10Z"/><path class="cls-1" d="M947.48,34.93h-190V0h190Z"/><path class="cls-1" d="M1084.58,172H620.42V24.93h464.16ZM630.42,162h444.16V34.93H630.42Z"/><path class="cls-2" d="M10,59.43a30,30,0,0,0,24.5-24.5h1636a30,30,0,0,0,24.5,24.5V940.16h10V24.93H0V940.16H10Zm1685-24.5V49.22a20,20,0,0,1-14.29-14.29Zm-1685,0H24.29A20,20,0,0,1,10,49.22Z"/><polygon class="cls-3" points="793.37 285.35 824.16 285.35 808.76 258.68 793.37 285.35"/><polygon class="cls-4" points="987.16 306.8 1039.63 306.8 1013.39 261.36 987.16 306.8"/><polygon class="cls-5" points="729.5 274.25 698.71 220.91 667.91 274.25 729.5 274.25"/><polygon class="cls-6" points="877.18 243.45 938.77 243.45 907.98 190.12 877.18 243.45"/><polygon class="cls-7" points="647.29 400.84 708.88 400.84 678.08 347.5 647.29 400.84"/><polygon class="cls-8" points="1046.57 500.7 1031.17 474.04 1015.78 500.7 1046.57 500.7"/><polygon class="cls-9" points="551.89 564.88 604.36 564.88 578.13 519.44 551.89 564.88"/><path class="cls-10" d="M904.62,367.66h0a15.4,15.4,0,0,0-13.33,7.7h0a15.4,15.4,0,0,0,0,15.4h0a15.39,15.39,0,0,0,13.33,7.69h0A15.41,15.41,0,0,0,918,390.76h0a15.4,15.4,0,0,0,0-15.4h0A15.42,15.42,0,0,0,904.62,367.66Z"/><path class="cls-11" d="M929.93,256.47h0a20,20,0,0,0-17.32,10h0a20,20,0,0,0,0,20h0a20,20,0,0,0,17.32,10h0a20,20,0,0,0,17.31-10h0a20,20,0,0,0,0-20h0A20,20,0,0,0,929.93,256.47Z"/><path class="cls-1" d="M347.44,24.93V446.75H669.25a236.14,236.14,0,0,0,79.25,65.68,234.39,234.39,0,0,0,211.89,0,236.2,236.2,0,0,0,79.24-65.68h317.93V24.93ZM955.85,503.52a224.39,224.39,0,0,1-202.81,0,226.05,226.05,0,0,1-70.94-56.77h344.69A226.16,226.16,0,0,1,955.85,503.52Zm391.71-66.77H357.44V34.93h990.12Z"/></g></g></svg>